<?xml version="1.0" encoding="utf-8"?>
<!-- Generator: Adobe Illustrator 20.1.0, SVG Export Plug-In . SVG Version: 6.00 Build 0)  -->
<svg version="1.1" id="Layer_1" xmlns="http://www.w3.org/2000/svg" xmlns:xlink="http://www.w3.org/1999/xlink" x="0px" y="0px"
	 viewBox="0 0 65 65" style="enable-background:new 0 0 65 65;" xml:space="preserve">
<style type="text/css">
	.st0{fill:#FFFFFF;}
	.st1{fill:#4F4D4E;}
	.st2{fill:#4F4D4E;stroke:#FFFFFF;stroke-miterlimit:10;}
</style>
<circle class="st0" cx="32.7" cy="32.7" r="30.4"/>
<g>
	<path class="st1" d="M32.7,64.3C15.1,64.4,0.6,49.8,1,31.9C1.4,14.9,15.5,0.8,33.1,1c17.4,0.2,31.7,14.7,31.2,32.5
		C63.9,50.5,49.9,64.4,32.7,64.3z M4.9,32.7C5,48.2,17.3,60.4,32.1,60.6c15.7,0.2,28.3-12.2,28.4-27.9C60.5,17.1,48,5,33.2,4.7
		C17.9,4.4,5,16.7,4.9,32.7z"/>
</g>
<g id="Page-1">
	<g id="Facebook">
		<path id="Oval-1" class="st2" d="M36,49.5v-17h5l0.7-5.8H36l0-2.9c0-1.5,0.2-2.3,2.5-2.3h3.1v-5.8h-5c-6,0-8.1,2.8-8.1,7.6v3.5
			h-3.8v5.8h3.8v17H36z"/>
	</g>
</g>
</svg>
