<?xml version="1.0" encoding="utf-8"?>
<!-- Generator: Adobe Illustrator 20.1.0, SVG Export Plug-In . SVG Version: 6.00 Build 0)  -->
<svg version="1.1" id="Layer_1" xmlns="http://www.w3.org/2000/svg" xmlns:xlink="http://www.w3.org/1999/xlink" x="0px" y="0px"
	 viewBox="0 0 65 65" style="enable-background:new 0 0 65 65;" xml:space="preserve">
<style type="text/css">
	.st0{fill:#FFFFFF;}
	.st1{fill:#4F4D4E;}
</style>
<circle class="st0" cx="32.7" cy="32.7" r="30.4"/>
<g>
	<path class="st1" d="M32.7,64.3C15.1,64.4,0.6,49.8,1,31.9C1.4,14.9,15.5,0.8,33.1,1c17.4,0.2,31.7,14.7,31.2,32.5
		C63.9,50.5,49.9,64.4,32.7,64.3z M4.9,32.7C5,48.2,17.3,60.4,32.1,60.6c15.7,0.2,28.3-12.2,28.4-27.9C60.5,17.1,48,5,33.2,4.7
		C17.9,4.4,5,16.7,4.9,32.7z"/>
	<path class="st1" d="M52.3,33.1c0,2.8-0.1,5.6,0,8.3c0.2,5.3-3.6,9.8-8.7,11c-1,0.3-2,0.4-3.1,0.4c-5.4,0-10.8,0.1-16.1,0
		c-4.5-0.1-8-2-10.4-5.9c-0.9-1.5-1.4-3.1-1.4-4.9c0-6-0.1-12.1,0-18.1c0.1-3.9,2-6.8,5.3-8.9c2-1.3,4.3-1.9,6.7-1.9
		c5.2,0,10.5-0.1,15.7,0c4.6,0.1,8.3,2,10.7,6.1c0.9,1.5,1.3,3.1,1.3,4.8C52.2,27.1,52.3,30.1,52.3,33.1z M15.5,33.1
		c0,2.9,0,5.8,0,8.7c0,1.2,0.2,2.3,0.8,3.3c1.8,3.3,4.6,4.8,8.2,4.9c5.2,0.1,10.5,0,15.8,0c0.9,0,1.8-0.2,2.7-0.4
		c3.5-0.9,6.5-4,6.4-8.4c-0.1-5.6,0-11.2,0-16.8c0-1.2-0.2-2.4-0.8-3.5c-1.8-3.2-4.7-4.7-8.2-4.7c-5.2-0.1-10.5-0.1-15.7,0
		c-1,0-2.1,0.2-3.1,0.5c-3.4,1.1-6.1,4.1-6,8.2C15.6,27.6,15.5,30.3,15.5,33.1z"/>
	<path class="st1" d="M32.4,23.1c5.2,0,9.4,4.1,9.4,9.2c0,5.1-4.2,9.2-9.3,9.2c-5.2,0-9.3-4.1-9.3-9.2
		C23.1,27.3,27.3,23.2,32.4,23.1z M32.4,26.1c-3.5,0-6.4,2.8-6.3,6.3c0,3.4,2.9,6.2,6.4,6.2c3.5,0,6.4-2.8,6.4-6.2
		C38.8,28.9,35.9,26.1,32.4,26.1z"/>
	<path class="st1" d="M44.8,22.3c0,1.1-0.9,2-1.9,2.1c-1.1,0-2-0.9-2-2c0-1.1,0.8-2,1.9-2.1C43.9,20.3,44.8,21.2,44.8,22.3z"/>
</g>
</svg>
