<?xml version="1.0" encoding="utf-8"?>
<!-- Generator: Adobe Illustrator 20.1.0, SVG Export Plug-In . SVG Version: 6.00 Build 0)  -->
<svg version="1.1" id="Layer_1" xmlns="http://www.w3.org/2000/svg" xmlns:xlink="http://www.w3.org/1999/xlink" x="0px" y="0px"
	 viewBox="0 0 65 65" style="enable-background:new 0 0 65 65;" xml:space="preserve">
<style type="text/css">
	.st0{fill:#FFFFFF;}
	.st1{fill:#4F4D4E;}
</style>
<circle class="st0" cx="32.7" cy="32.7" r="30.4"/>
<g>
	<path class="st1" d="M32.7,64.3C15.1,64.4,0.6,49.8,1,31.9C1.4,14.9,15.5,0.8,33.1,1c17.4,0.2,31.7,14.7,31.2,32.5
		C63.9,50.5,49.9,64.4,32.7,64.3z M4.9,32.7C5,48.2,17.3,60.4,32.1,60.6c15.7,0.2,28.3-12.2,28.4-27.9C60.5,17.1,48,5,33.2,4.7
		C17.9,4.4,5,16.7,4.9,32.7z"/>
</g>
<path class="st1" d="M39.8,25.3c0.3,0,0.6,0,1,0c-1.6-4.8-6.9-8.4-13.2-8.4C20,17,13.9,22,13.9,28.3c0,3.7,2.1,7,5.4,9l-1,3.9
	l4.8-2.2c1.1,0.3,2.2,0.5,3.4,0.6c-0.2-0.9-0.4-1.7-0.4-2.7C26.2,30.5,32.3,25.3,39.8,25.3z M31.9,22.5c1.2,0,2.1,0.9,2.1,2.1
	c0,1.2-0.9,2.1-2.1,2.1c-1.2,0-2.1-0.9-2.1-2.1C29.8,23.5,30.7,22.5,31.9,22.5z M23,26.7c-1.2,0-2.1-0.9-2.1-2.1
	c0-1.2,0.9-2.1,2.1-2.1c1.2,0,2.1,0.9,2.1,2.1C25.1,25.8,24.1,26.7,23,26.7z"/>
<path class="st1" d="M39.7,27.1c-6.5,0-11.8,4.4-11.8,9.8c0,5.4,5.3,9.8,11.8,9.8c1.6,0,3.2-0.3,4.6-0.8l4,2l-0.9-3.6
	c2.5-1.8,4.1-4.5,4.1-7.4C51.5,31.5,46.2,27.1,39.7,27.1z M36.2,35.5c-1.1,0-2-0.9-2-2c0-1.1,0.9-2,2-2c1.1,0,2,0.9,2,2
	C38.2,34.6,37.3,35.5,36.2,35.5z M43.9,35.5c-1.1,0-2-0.9-2-2c0-1.1,0.9-2,2-2c1.1,0,2,0.9,2,2C45.9,34.6,45,35.5,43.9,35.5z"/>
</svg>
